<?xml version="1.0" encoding="utf-8"?>
<!-- Generator: Adobe Illustrator 28.3.0, SVG Export Plug-In . SVG Version: 6.00 Build 0)  -->
<svg version="1.1" id="Layer_1" xmlns="http://www.w3.org/2000/svg" xmlns:xlink="http://www.w3.org/1999/xlink" x="0px" y="0px"
	 viewBox="0 0 453 453" style="enable-background:new 0 0 453 453;" xml:space="preserve">
<style type="text/css">
	.st0{fill:#FFFFFF;}
</style>
<path class="st0" d="M438,433.7l-419.3,0.6l0.6-418.7c0-8.3-0.5-15-8.8-15C2.2,0.6,0,6.7,0,15v423c0,8.3,6.7,15,15,15h423
	c8.3,0,14.4-2.2,14.4-10.5S446.3,433.7,438,433.7L438,433.7z"/>
<path class="st0" d="M57,406h78.9c5.5,0,10-4.5,10-10v-82.8c0-5.5-4.5-10-10-10H57c-5.5,0-10,4.5-10,10V396
	C47,401.5,51.5,406,57,406z M67,323.1h58.9V386H67V323.1z M179.1,406h78.9c5.5,0,10-4.5,10-10V180.4c0-5.5-4.5-10-10-10h-78.9
	c-5.5,0-10,4.5-10,10V396C169.1,401.5,173.6,406,179.1,406z M189.1,190.4h58.9V386h-58.9V190.4z M305.1,406H384c5.5,0,10-4.5,10-10
	V49.2c0-5.5-4.5-10-10-10h-78.9c-5.5,0-10,4.5-10,10V396C295.1,401.5,299.5,406,305.1,406L305.1,406z M315.1,59.2H374V386h-58.9
	V59.2L315.1,59.2z"/>
</svg>
