<?xml version="1.0" encoding="utf-8"?>
<!-- Generator: Adobe Illustrator 28.3.0, SVG Export Plug-In . SVG Version: 6.00 Build 0)  -->
<svg version="1.1" id="Layer_1" xmlns="http://www.w3.org/2000/svg" xmlns:xlink="http://www.w3.org/1999/xlink" x="0px" y="0px"
	 viewBox="0 0 122.9 114.4" style="enable-background:new 0 0 122.9 114.4;" xml:space="preserve">
<style type="text/css">
	.st0{fill:#FFFFFF;}
</style>
<path class="st0" d="M110.8,107.9v4.5c0,1.2-0.9,2.1-2.1,2.1H13.6c-1.2,0-2.1-0.9-2.1-2.1V58.9c-2.3,0.9-4.5,0.9-6.3,0.3
	c-1.4-0.5-2.6-1.3-3.5-2.5c-1.4-2.2-3.2-7.1,3.7-12.7c0.1-0.1,2.4-2,2.5-2.1l52-41.4c0.7-0.7,1.9-0.8,2.7-0.1l57.2,44.5
	c0.1,0.1,0.2,0.1,0.2,0.2c2.7,2.8,3.3,6,2.7,8.7c-0.3,1.3-0.9,2.5-1.8,3.5c-0.9,1-2,1.7-3.2,2.2c-2,0.7-4.4,0.7-6.8-0.4L110.8,107.9
	C110.8,107.9,110.8,107.9,110.8,107.9z M5.6,48.2c-1.4,1.7-1.5,2.9-1.4,4.1c0.1,0.7,0.3,1.3,0.7,1.8c0.4,0.5,0.9,0.9,1.6,1.1
	c1.1,0.4,2.5,0.3,4.1-0.5l49.8-37.9c0.8-0.6,1.8-0.6,2.5,0l48.4,37.6c0,0,0,0,0.1,0c1.8,1.3,3.5,1.5,4.8,1c0.6-0.2,1.1-0.6,1.6-1
	c0.4-0.5,0.7-1,0.9-1.7c0.3-1.4-0.1-3.1-1.6-4.7L61.3,4.7L5.6,48.2z M29.6,75.5h26.7c1,0,1.9,0.8,1.9,1.8v20.9c0,1-0.8,1.8-1.9,1.8
	H29.6c-1,0-1.9-0.8-1.9-1.8V77.3C27.7,76.3,28.6,75.5,29.6,75.5z M67.7,73.7h25.1c1.1,0,2,0.9,2,2.1v34.5h11.8V56.6
	c0-0.1,0-0.3,0-0.4l-45-35l-46,35c0.1,0.2,0.1,0.3,0.1,0.5v53.5h50V75.7C65.7,74.6,66.6,73.7,67.7,73.7z M90.8,77.8h-21v32.4h21
	C90.8,110.2,90.8,77.8,90.8,77.8z M54.4,89.6h-9.9v6.8h9.9V89.6z M40.8,89.6h-9.3v6.8h9.3V89.6z M31.5,85.9h9.3v-6.7h-9.3V85.9z
	 M44.5,85.9h9.9v-6.7h-9.9V85.9z M60.9,36.3c3.6,0,6.4,2.9,6.4,6.4s-2.9,6.4-6.4,6.4s-6.4-2.9-6.4-6.4
	C54.4,39.2,57.3,36.3,60.9,36.3z"/>
</svg>
